<mxfile host="Electron" agent="Mozilla/5.0 (X11; Linux x86_64) AppleWebKit/537.36 (KHTML, like Gecko) draw.io/22.0.3 Chrome/114.0.5735.289 Electron/25.8.4 Safari/537.36" modified="2024-09-30T21:17:40.523Z" version="22.0.3" etag="UCb7yPuPvBro3RVDZk-g" type="device">
  <diagram name="Page-1" id="EprwZHJZqhmu07CxXmQ5">
    <mxGraphModel dx="1424" dy="836" grid="1" gridSize="10" guides="1" tooltips="1" connect="1" arrows="1" fold="1" page="1" pageScale="1" pageWidth="850" pageHeight="1100" background="#2B2B2B" math="0" shadow="0">
      <root>
        <mxCell id="0" />
        <mxCell id="1" parent="0" />
        <mxCell id="SgiTrQyAae9wXX1JVmTs-1" value="&lt;font style=&quot;font-size: 22px;&quot;&gt;IDLE&lt;/font&gt;" style="rounded=0;whiteSpace=wrap;html=1;fillColor=#dae8fc;strokeColor=#6c8ebf;" parent="1" vertex="1">
          <mxGeometry x="30" y="170" width="180" height="80" as="geometry" />
        </mxCell>
        <mxCell id="SgiTrQyAae9wXX1JVmTs-2" value="&lt;font style=&quot;font-size: 22px;&quot;&gt;ACTIVATING&lt;/font&gt;" style="rounded=0;whiteSpace=wrap;html=1;fillColor=#dae8fc;strokeColor=#6c8ebf;" parent="1" vertex="1">
          <mxGeometry x="335" y="60" width="180" height="80" as="geometry" />
        </mxCell>
        <mxCell id="SgiTrQyAae9wXX1JVmTs-3" value="&lt;font style=&quot;font-size: 22px;&quot;&gt;DEACTIVATING&lt;/font&gt;" style="rounded=0;whiteSpace=wrap;html=1;fillColor=#dae8fc;strokeColor=#6c8ebf;" parent="1" vertex="1">
          <mxGeometry x="335" y="250" width="180" height="80" as="geometry" />
        </mxCell>
        <mxCell id="SgiTrQyAae9wXX1JVmTs-5" value="&lt;font style=&quot;font-size: 22px;&quot;&gt;ACTIVE&lt;/font&gt;" style="rounded=0;whiteSpace=wrap;html=1;fillColor=#dae8fc;strokeColor=#6c8ebf;" parent="1" vertex="1">
          <mxGeometry x="640" y="170" width="180" height="80" as="geometry" />
        </mxCell>
        <mxCell id="SgiTrQyAae9wXX1JVmTs-7" value="" style="endArrow=classic;html=1;rounded=0;entryX=0.006;entryY=0.863;entryDx=0;entryDy=0;entryPerimeter=0;exitX=0.983;exitY=0.4;exitDx=0;exitDy=0;exitPerimeter=0;strokeWidth=7;strokeColor=#E6E6E6;" parent="1" source="SgiTrQyAae9wXX1JVmTs-1" target="SgiTrQyAae9wXX1JVmTs-2" edge="1">
          <mxGeometry width="50" height="50" relative="1" as="geometry">
            <mxPoint x="250" y="210" as="sourcePoint" />
            <mxPoint x="260" y="150" as="targetPoint" />
          </mxGeometry>
        </mxCell>
        <mxCell id="SgiTrQyAae9wXX1JVmTs-8" value="" style="endArrow=classic;html=1;rounded=0;entryX=-0.017;entryY=0.35;entryDx=0;entryDy=0;entryPerimeter=0;exitX=0.978;exitY=0.65;exitDx=0;exitDy=0;exitPerimeter=0;strokeWidth=7;strokeColor=#E6E6E6;" parent="1" source="SgiTrQyAae9wXX1JVmTs-2" target="SgiTrQyAae9wXX1JVmTs-5" edge="1">
          <mxGeometry width="50" height="50" relative="1" as="geometry">
            <mxPoint x="425.06" y="212.96" as="sourcePoint" />
            <mxPoint x="499.06" y="149.96" as="targetPoint" />
          </mxGeometry>
        </mxCell>
        <mxCell id="SgiTrQyAae9wXX1JVmTs-10" value="" style="endArrow=classic;html=1;rounded=0;entryX=1;entryY=0.25;entryDx=0;entryDy=0;exitX=-0.006;exitY=0.625;exitDx=0;exitDy=0;exitPerimeter=0;strokeWidth=7;strokeColor=#E6E6E6;" parent="1" source="SgiTrQyAae9wXX1JVmTs-5" target="SgiTrQyAae9wXX1JVmTs-3" edge="1">
          <mxGeometry width="50" height="50" relative="1" as="geometry">
            <mxPoint x="460" y="240" as="sourcePoint" />
            <mxPoint x="541" y="316" as="targetPoint" />
          </mxGeometry>
        </mxCell>
        <mxCell id="SgiTrQyAae9wXX1JVmTs-11" value="" style="endArrow=classic;html=1;rounded=0;entryX=1;entryY=0.75;entryDx=0;entryDy=0;exitX=0.022;exitY=0.425;exitDx=0;exitDy=0;exitPerimeter=0;strokeWidth=7;strokeColor=#E6E6E6;" parent="1" source="SgiTrQyAae9wXX1JVmTs-3" target="SgiTrQyAae9wXX1JVmTs-1" edge="1">
          <mxGeometry width="50" height="50" relative="1" as="geometry">
            <mxPoint x="476" y="142" as="sourcePoint" />
            <mxPoint x="557" y="218" as="targetPoint" />
          </mxGeometry>
        </mxCell>
        <mxCell id="SgiTrQyAae9wXX1JVmTs-14" value="&lt;font style=&quot;font-size: 22px;&quot;&gt;STILL (STOPPED)&lt;br&gt;&lt;/font&gt;" style="shape=hexagon;perimeter=hexagonPerimeter2;whiteSpace=wrap;html=1;fixedSize=1;fillColor=#d5e8d4;strokeColor=#82b366;" parent="1" vertex="1">
          <mxGeometry x="610" y="420" width="180" height="100" as="geometry" />
        </mxCell>
        <mxCell id="SgiTrQyAae9wXX1JVmTs-15" value="&lt;font style=&quot;font-size: 22px;&quot;&gt;BRAKING&lt;/font&gt;" style="shape=hexagon;perimeter=hexagonPerimeter2;whiteSpace=wrap;html=1;fixedSize=1;fillColor=#d5e8d4;strokeColor=#82b366;" parent="1" vertex="1">
          <mxGeometry x="50" y="420" width="180" height="100" as="geometry" />
        </mxCell>
        <mxCell id="SgiTrQyAae9wXX1JVmTs-16" value="&lt;font style=&quot;font-size: 22px;&quot;&gt;INITIAL ROTATION&lt;br&gt;&lt;/font&gt;" style="shape=hexagon;perimeter=hexagonPerimeter2;whiteSpace=wrap;html=1;fixedSize=1;fillColor=#d5e8d4;strokeColor=#82b366;" parent="1" vertex="1">
          <mxGeometry x="320" y="570" width="180" height="100" as="geometry" />
        </mxCell>
        <mxCell id="SgiTrQyAae9wXX1JVmTs-18" value="&lt;div&gt;&lt;font style=&quot;font-size: 22px;&quot;&gt;TRAJECTORY&lt;/font&gt;&lt;/div&gt;&lt;div&gt;&lt;font style=&quot;font-size: 22px;&quot;&gt;(MOVING)&lt;br&gt;&lt;/font&gt;&lt;/div&gt;" style="shape=hexagon;perimeter=hexagonPerimeter2;whiteSpace=wrap;html=1;fixedSize=1;fillColor=#d5e8d4;strokeColor=#82b366;" parent="1" vertex="1">
          <mxGeometry x="320" y="760" width="180" height="100" as="geometry" />
        </mxCell>
        <mxCell id="SgiTrQyAae9wXX1JVmTs-19" value="&lt;font style=&quot;font-size: 22px;&quot;&gt;FINAL ROTATION&lt;br&gt;&lt;/font&gt;" style="shape=hexagon;perimeter=hexagonPerimeter2;whiteSpace=wrap;html=1;fixedSize=1;fillColor=#d5e8d4;strokeColor=#82b366;" parent="1" vertex="1">
          <mxGeometry x="320" y="950" width="180" height="100" as="geometry" />
        </mxCell>
        <mxCell id="SgiTrQyAae9wXX1JVmTs-21" value="" style="endArrow=classic;html=1;rounded=0;entryX=0.933;entryY=0.19;entryDx=0;entryDy=0;exitX=0;exitY=0.75;exitDx=0;exitDy=0;strokeWidth=7;strokeColor=#E6E6E6;entryPerimeter=0;" parent="1" source="SgiTrQyAae9wXX1JVmTs-14" target="SgiTrQyAae9wXX1JVmTs-16" edge="1">
          <mxGeometry width="50" height="50" relative="1" as="geometry">
            <mxPoint x="654" y="674" as="sourcePoint" />
            <mxPoint x="580" y="610" as="targetPoint" />
          </mxGeometry>
        </mxCell>
        <mxCell id="SgiTrQyAae9wXX1JVmTs-23" value="" style="endArrow=classic;html=1;rounded=0;entryX=0.5;entryY=0;entryDx=0;entryDy=0;exitX=0.5;exitY=1;exitDx=0;exitDy=0;strokeWidth=7;strokeColor=#E6E6E6;" parent="1" source="SgiTrQyAae9wXX1JVmTs-16" target="SgiTrQyAae9wXX1JVmTs-18" edge="1">
          <mxGeometry width="50" height="50" relative="1" as="geometry">
            <mxPoint x="593" y="580" as="sourcePoint" />
            <mxPoint x="548" y="629" as="targetPoint" />
          </mxGeometry>
        </mxCell>
        <mxCell id="SgiTrQyAae9wXX1JVmTs-24" value="" style="endArrow=classic;html=1;rounded=0;entryX=0.5;entryY=0;entryDx=0;entryDy=0;strokeWidth=7;strokeColor=#E6E6E6;exitX=0.5;exitY=1;exitDx=0;exitDy=0;" parent="1" source="SgiTrQyAae9wXX1JVmTs-18" target="SgiTrQyAae9wXX1JVmTs-19" edge="1">
          <mxGeometry width="50" height="50" relative="1" as="geometry">
            <mxPoint x="450" y="890" as="sourcePoint" />
            <mxPoint x="415" y="880" as="targetPoint" />
          </mxGeometry>
        </mxCell>
        <mxCell id="SgiTrQyAae9wXX1JVmTs-25" value="" style="endArrow=classic;html=1;rounded=0;entryX=0.5;entryY=1;entryDx=0;entryDy=0;exitX=1;exitY=0.25;exitDx=0;exitDy=0;strokeWidth=7;strokeColor=#9673a6;fillColor=#e1d5e7;" parent="1" source="SgiTrQyAae9wXX1JVmTs-18" target="SgiTrQyAae9wXX1JVmTs-14" edge="1">
          <mxGeometry width="50" height="50" relative="1" as="geometry">
            <mxPoint x="645" y="730" as="sourcePoint" />
            <mxPoint x="600" y="779" as="targetPoint" />
          </mxGeometry>
        </mxCell>
        <mxCell id="SgiTrQyAae9wXX1JVmTs-26" value="" style="endArrow=classic;html=1;rounded=0;entryX=0.5;entryY=1;entryDx=0;entryDy=0;exitX=0.011;exitY=0.57;exitDx=0;exitDy=0;strokeWidth=7;strokeColor=#d6b656;exitPerimeter=0;dashed=1;dashPattern=1 1;fillColor=#fff2cc;" parent="1" source="SgiTrQyAae9wXX1JVmTs-18" target="SgiTrQyAae9wXX1JVmTs-15" edge="1">
          <mxGeometry width="50" height="50" relative="1" as="geometry">
            <mxPoint x="370" y="791" as="sourcePoint" />
            <mxPoint x="325" y="840" as="targetPoint" />
          </mxGeometry>
        </mxCell>
        <mxCell id="SgiTrQyAae9wXX1JVmTs-27" value="" style="endArrow=classic;html=1;rounded=0;entryX=0;entryY=0.5;entryDx=0;entryDy=0;exitX=1;exitY=0.5;exitDx=0;exitDy=0;strokeWidth=7;strokeColor=#E6E6E6;" parent="1" source="SgiTrQyAae9wXX1JVmTs-15" target="SgiTrQyAae9wXX1JVmTs-14" edge="1">
          <mxGeometry width="50" height="50" relative="1" as="geometry">
            <mxPoint x="633" y="620" as="sourcePoint" />
            <mxPoint x="588" y="669" as="targetPoint" />
          </mxGeometry>
        </mxCell>
        <mxCell id="SgiTrQyAae9wXX1JVmTs-28" value="" style="endArrow=classic;html=1;rounded=0;exitX=0.933;exitY=0.8;exitDx=0;exitDy=0;strokeWidth=7;strokeColor=#d6b656;exitPerimeter=0;entryX=0.078;entryY=0.19;entryDx=0;entryDy=0;entryPerimeter=0;dashed=1;dashPattern=1 1;fillColor=#fff2cc;" parent="1" source="SgiTrQyAae9wXX1JVmTs-15" target="SgiTrQyAae9wXX1JVmTs-16" edge="1">
          <mxGeometry width="50" height="50" relative="1" as="geometry">
            <mxPoint x="643" y="630" as="sourcePoint" />
            <mxPoint x="320" y="590" as="targetPoint" />
          </mxGeometry>
        </mxCell>
        <mxCell id="SgiTrQyAae9wXX1JVmTs-29" value="" style="endArrow=classic;html=1;rounded=0;entryX=0.711;entryY=0.98;entryDx=0;entryDy=0;exitX=0.894;exitY=0.08;exitDx=0;exitDy=0;strokeWidth=7;strokeColor=#E6E6E6;entryPerimeter=0;exitPerimeter=0;" parent="1" source="SgiTrQyAae9wXX1JVmTs-19" target="SgiTrQyAae9wXX1JVmTs-14" edge="1">
          <mxGeometry width="50" height="50" relative="1" as="geometry">
            <mxPoint x="551" y="778" as="sourcePoint" />
            <mxPoint x="640" y="550" as="targetPoint" />
          </mxGeometry>
        </mxCell>
        <mxCell id="SgiTrQyAae9wXX1JVmTs-30" value="&lt;div&gt;&lt;font style=&quot;font-size: 22px;&quot; color=&quot;#ffffff&quot;&gt;setActive(true)&lt;/font&gt;&lt;/div&gt;&lt;div&gt;&lt;font style=&quot;font-size: 22px;&quot; color=&quot;#ffffff&quot;&gt;/br/idle 1&lt;br&gt;&lt;/font&gt;&lt;/div&gt;" style="text;html=1;align=center;verticalAlign=middle;whiteSpace=wrap;rounded=0;" parent="1" vertex="1">
          <mxGeometry x="180" y="110" width="110" height="30" as="geometry" />
        </mxCell>
        <mxCell id="SgiTrQyAae9wXX1JVmTs-32" value="&lt;div&gt;&lt;font style=&quot;font-size: 22px;&quot; color=&quot;#ffffff&quot;&gt;setActive(false)&lt;/font&gt;&lt;/div&gt;&lt;div&gt;&lt;font style=&quot;font-size: 22px;&quot; color=&quot;#ffffff&quot;&gt;/br/idle 0&lt;br&gt;&lt;/font&gt;&lt;/div&gt;" style="text;html=1;align=center;verticalAlign=middle;whiteSpace=wrap;rounded=0;" parent="1" vertex="1">
          <mxGeometry x="575" y="275" width="110" height="30" as="geometry" />
        </mxCell>
        <mxCell id="SgiTrQyAae9wXX1JVmTs-33" value="&lt;font style=&quot;font-size: 22px;&quot; color=&quot;#fafafa&quot;&gt;Motors in closed loop&lt;br&gt;&lt;/font&gt;" style="text;html=1;align=center;verticalAlign=middle;whiteSpace=wrap;rounded=0;" parent="1" vertex="1">
          <mxGeometry x="560" y="110" width="170" height="30" as="geometry" />
        </mxCell>
        <mxCell id="SgiTrQyAae9wXX1JVmTs-34" value="&lt;font style=&quot;font-size: 22px;&quot; color=&quot;#fafafa&quot;&gt;Motors idle&lt;br&gt;&lt;/font&gt;" style="text;html=1;align=center;verticalAlign=middle;whiteSpace=wrap;rounded=0;" parent="1" vertex="1">
          <mxGeometry x="140" y="275" width="170" height="30" as="geometry" />
        </mxCell>
        <mxCell id="SgiTrQyAae9wXX1JVmTs-36" value="" style="endArrow=classic;html=1;rounded=0;entryX=1;entryY=0.25;entryDx=0;entryDy=0;exitX=0.822;exitY=1.01;exitDx=0;exitDy=0;strokeWidth=7;strokeColor=#6c8ebf;exitPerimeter=0;fillColor=#dae8fc;" parent="1" source="SgiTrQyAae9wXX1JVmTs-14" target="SgiTrQyAae9wXX1JVmTs-19" edge="1">
          <mxGeometry width="50" height="50" relative="1" as="geometry">
            <mxPoint x="646" y="520" as="sourcePoint" />
            <mxPoint x="515" y="616" as="targetPoint" />
          </mxGeometry>
        </mxCell>
        <mxCell id="SgiTrQyAae9wXX1JVmTs-37" value="&lt;font style=&quot;font-size: 22px;&quot; color=&quot;#fafafa&quot;&gt;Suspending displacement due to bad orientation&lt;br&gt;then resuming displacement from INITIAL ROTATION&lt;br&gt;&lt;/font&gt;" style="text;html=1;align=center;verticalAlign=middle;whiteSpace=wrap;rounded=0;" parent="1" vertex="1">
          <mxGeometry x="20" y="1080" width="550" height="100" as="geometry" />
        </mxCell>
        <mxCell id="L4HBEbBPlxoyrNJZoO_B-1" value="" style="endArrow=classic;html=1;rounded=0;entryX=0.667;entryY=1.01;entryDx=0;entryDy=0;exitX=0;exitY=0.25;exitDx=0;exitDy=0;strokeWidth=7;strokeColor=#b85450;entryPerimeter=0;fillColor=#f8cecc;" edge="1" parent="1" source="SgiTrQyAae9wXX1JVmTs-18" target="SgiTrQyAae9wXX1JVmTs-15">
          <mxGeometry width="50" height="50" relative="1" as="geometry">
            <mxPoint x="491" y="968" as="sourcePoint" />
            <mxPoint x="748" y="528" as="targetPoint" />
            <Array as="points">
              <mxPoint x="270" y="680" />
            </Array>
          </mxGeometry>
        </mxCell>
        <mxCell id="L4HBEbBPlxoyrNJZoO_B-5" value="" style="endArrow=classic;html=1;rounded=0;entryX=0.867;entryY=1.03;entryDx=0;entryDy=0;exitX=0;exitY=0.75;exitDx=0;exitDy=0;strokeWidth=7;strokeColor=#b85450;entryPerimeter=0;fillColor=#f8cecc;" edge="1" parent="1" source="SgiTrQyAae9wXX1JVmTs-16" target="SgiTrQyAae9wXX1JVmTs-15">
          <mxGeometry width="50" height="50" relative="1" as="geometry">
            <mxPoint x="629" y="503" as="sourcePoint" />
            <mxPoint x="498" y="599" as="targetPoint" />
          </mxGeometry>
        </mxCell>
        <mxCell id="L4HBEbBPlxoyrNJZoO_B-6" value="" style="endArrow=classic;html=1;rounded=0;exitX=0;exitY=0.25;exitDx=0;exitDy=0;strokeWidth=7;strokeColor=#b85450;fillColor=#f8cecc;entryX=0.189;entryY=1.01;entryDx=0;entryDy=0;entryPerimeter=0;" edge="1" parent="1" source="SgiTrQyAae9wXX1JVmTs-19" target="SgiTrQyAae9wXX1JVmTs-15">
          <mxGeometry width="50" height="50" relative="1" as="geometry">
            <mxPoint x="339" y="653" as="sourcePoint" />
            <mxPoint x="80" y="530" as="targetPoint" />
          </mxGeometry>
        </mxCell>
        <mxCell id="L4HBEbBPlxoyrNJZoO_B-7" value="" style="endArrow=classic;html=1;rounded=0;exitX=0.933;exitY=0.8;exitDx=0;exitDy=0;strokeWidth=7;strokeColor=#d6b656;exitPerimeter=0;dashed=1;dashPattern=1 1;fillColor=#fff2cc;" edge="1" parent="1">
          <mxGeometry width="50" height="50" relative="1" as="geometry">
            <mxPoint x="590" y="1129.5" as="sourcePoint" />
            <mxPoint x="726" y="1129.5" as="targetPoint" />
          </mxGeometry>
        </mxCell>
        <mxCell id="L4HBEbBPlxoyrNJZoO_B-10" value="" style="endArrow=classic;html=1;rounded=0;strokeWidth=7;strokeColor=#b85450;fillColor=#f8cecc;" edge="1" parent="1">
          <mxGeometry width="50" height="50" relative="1" as="geometry">
            <mxPoint x="600" y="1210" as="sourcePoint" />
            <mxPoint x="720" y="1210" as="targetPoint" />
          </mxGeometry>
        </mxCell>
        <mxCell id="L4HBEbBPlxoyrNJZoO_B-11" value="&lt;font style=&quot;font-size: 22px;&quot; color=&quot;#fafafa&quot;&gt;Emergency braking requested&lt;br&gt;&lt;/font&gt;" style="text;html=1;align=center;verticalAlign=middle;whiteSpace=wrap;rounded=0;" vertex="1" parent="1">
          <mxGeometry x="25" y="1190" width="550" height="40" as="geometry" />
        </mxCell>
        <mxCell id="L4HBEbBPlxoyrNJZoO_B-12" value="" style="endArrow=classic;html=1;rounded=0;strokeWidth=7;strokeColor=#9673a6;fillColor=#e1d5e7;" edge="1" parent="1">
          <mxGeometry width="50" height="50" relative="1" as="geometry">
            <mxPoint x="600" y="1270" as="sourcePoint" />
            <mxPoint x="720" y="1270" as="targetPoint" />
          </mxGeometry>
        </mxCell>
        <mxCell id="L4HBEbBPlxoyrNJZoO_B-13" value="&lt;font style=&quot;font-size: 22px;&quot; color=&quot;#fafafa&quot;&gt;Displacement without final orientation&lt;br&gt;&lt;/font&gt;" style="text;html=1;align=center;verticalAlign=middle;whiteSpace=wrap;rounded=0;" vertex="1" parent="1">
          <mxGeometry x="30" y="1250" width="550" height="40" as="geometry" />
        </mxCell>
        <mxCell id="L4HBEbBPlxoyrNJZoO_B-14" value="&lt;font style=&quot;font-size: 22px;&quot; color=&quot;#fafafa&quot;&gt;Rotation without displacement&lt;br&gt;&lt;/font&gt;" style="text;html=1;align=center;verticalAlign=middle;whiteSpace=wrap;rounded=0;" vertex="1" parent="1">
          <mxGeometry x="30" y="1310" width="550" height="40" as="geometry" />
        </mxCell>
        <mxCell id="L4HBEbBPlxoyrNJZoO_B-15" value="" style="endArrow=classic;html=1;rounded=0;strokeWidth=7;strokeColor=#6c8ebf;fillColor=#dae8fc;" edge="1" parent="1">
          <mxGeometry width="50" height="50" relative="1" as="geometry">
            <mxPoint x="600" y="1328" as="sourcePoint" />
            <mxPoint x="720" y="1328" as="targetPoint" />
          </mxGeometry>
        </mxCell>
      </root>
    </mxGraphModel>
  </diagram>
</mxfile>
